Patient4_TMGait_0pt4_02_right_06_EMG.mot
version=1
nRows=40
nColumns=33
inDegrees=no
endheader
time	1LAddLong	2LGlutMax	3LGlutMed	4LIliopsoas	5LSemiMemb	6LBicFemLong	7LRecFem	8LVastMed	9LVastLat	10LGasMed	11LTibAnt	12lTibPost	13LPeroneusLong	14LSol	15LExtDigLong	16LFlexDigLong	17RAddLong	18RGlutMax	19RGlutMed	20RIliopsoas	21RSemiMemb	22RBicFemLong	23RRecFem	24RVastMed	25RVastLat	26RGasMed	27RTibAnt	28RTibPost	29RPeroneusLong	30RSol	31RExtDigLong	32RFlexDigLong
8.335	-0.006409	0.000916	-0.062561	0.010986	0.001984	0.032654	-0.10208	0.021057	0.14771	0.18738	0.004425	-0.015869	0.032959	0.007935	0.012512	0.00412	0.028229	-0.10056	0.75485	-0.20767	0.00885	-0.27344	-0.053864	-0.11108	-0.019531	-0.012512	0.001221	-0.16159	0.045929	-0.23178	-0.003662	-0.009155
8.336	-0.020142	-0.008698	-0.089874	-0.006256	-0.00946	0.081635	-0.045929	0.021057	0.19211	0.30518	0.003967	-0.009155	0.046387	-0.001221	0.020752	-0.007172	0.045929	-0.092773	0.39475	-0.11612	-0.053711	-0.15823	-0.06546	-0.071716	-0.00473	0.00885	-0.000305	0.14145	0.112	-0.45151	-0.00412	-0.014343
8.337	-0.025024	-0.030518	-0.076904	-0.005188	-0.01709	0.19608	-0.002899	0.014191	0.3009	0.015717	0.005035	-0.012817	0.047913	-0.029602	0.019836	-0.012665	0.03891	-0.037537	0.12314	0.018158	0.073395	-0.005493	-0.080261	-0.06073	0.018921	-0.000458	0.039063	0.082245	-0.04715	-0.28046	-0.001373	-0.017242
8.338	-0.04425	-0.16068	-0.079193	0.005646	-0.024261	0.26657	-0.059814	0.004578	0.25391	-0.24338	-0.009613	-0.009613	0.044556	-0.027008	0.018768	0.003967	0.035858	-0.063019	0.54092	0.079498	0.12833	0.058289	-0.10605	-0.022888	0.01358	-0.026855	0.048218	-0.053864	-0.041504	0.12238	0.000458	-0.020447
8.339	-0.034485	-0.20477	-0.084991	0.008087	-0.015106	0.22537	-0.085907	-0.002441	0.17502	-0.22034	-0.001526	-0.011902	0.028381	-0.029144	0.006256	0.000305	0.011749	-0.075836	0.47852	0.082397	0.17364	-0.000916	-0.12131	-0.001068	-0.000458	-0.004425	0.02182	0.053101	0.016327	0.37903	-0.002136	-0.007477
8.34	-0.02533	-0.21912	-0.091095	0.001984	-0.01358	0.25299	-0.14435	0.006714	0.07431	-0.23865	0.000458	-0.000458	0.037079	-0.020142	0	0.002136	0.019379	-0.11704	0.28946	0.11719	0.11963	-0.0354	-0.11948	-0.046539	-0.005188	0.008698	0.005188	0.12329	-0.10071	0.13382	-0.004272	-0.009308
8.341	-0.036926	-0.21606	-0.097351	0.002289	-0.051727	0.24048	-0.18051	0.018005	0.071869	-0.17899	0.003204	0.026855	0.02594	0.033875	-0.012207	0.009308	-0.016327	-0.051575	0.081177	0.10803	-0.031738	-0.003052	-0.10757	-0.046234	-0.005951	0.002289	-0.019989	0.000305	0.013733	0.10895	-0.005493	-0.004578
8.342	-0.025024	-0.2153	-0.070496	0.010071	-0.040588	0.033875	-0.22614	0.020905	0.13397	0.012665	0.005798	0.014038	0.03418	0.063629	-0.011597	0.007782	0.001984	-0.07782	0.042267	0.061493	-0.021667	-0.019836	-0.13947	-0.022888	0.024414	0.007172	-0.015869	-0.006256	-0.044556	0.082855	-0.004883	-0.002899
8.343	-0.000305	-0.16953	-0.056915	0.005493	-0.052948	-0.1416	-0.23712	0.005951	0.20523	0.078735	0.007324	-0.010223	0.024414	0.1294	-0.012054	0.006714	0.053101	-0.052948	0.42221	0.043335	0.11871	-0.10971	-0.15869	-0.03006	0.002747	-0.000916	-0.003967	0.033569	-0.063324	0.10162	-0.004272	0.001068
8.344	0.009155	-0.13321	-0.050659	0.000916	-0.007324	-0.29221	-0.16403	0.011597	0.11581	0.092468	0.008698	0.000458	0.018463	0.21851	-0.005341	0.020599	0.056	-0.091705	-0.027313	0.009613	0.001526	-0.10788	-0.18814	-0.006866	0.032806	-0.014801	0.010223	0.02182	-0.001373	0.22064	-0.002136	-0.002136
8.345	-0.006256	-0.1181	-0.026703	0.008698	0.064697	-0.32516	-0.050964	0.017242	0.084229	0.078735	0.005341	0.001373	0.009155	0.21057	-0.012817	0.010376	0.032806	-0.11932	0.15198	-0.02533	-0.34897	-0.083923	-0.16785	0.021057	0.022125	-0.011444	-0.022888	0.005188	0.17685	0.26886	-0.004425	0.000153
8.346	-0.018005	-0.088654	-0.018616	0.013885	0.071259	-0.35553	-0.02533	0.026398	0.20187	0.057373	0.011749	-0.007019	0.016937	0.070038	-0.003967	-0.022736	-0.010071	-0.080719	0.31387	-0.041962	-0.26016	-0.055847	-0.1886	0.00473	0.057068	0.004578	-0.025024	-0.01358	0.33081	0.001831	-0.001221	0.012512
8.347	-0.022125	-0.044403	-0.00412	0.002136	-0.003815	-0.16708	-0.003357	0.020294	0.29846	0.05188	0.00473	0.002899	0.031738	-0.030212	-0.000305	-0.028992	-0.006866	-0.22934	0.23697	-0.043488	0.1651	-0.054016	-0.12985	0.073242	0.033569	0.005951	0.014954	-0.016022	0.45929	-0.018616	-0.003052	0.008545
8.348	-0.012207	-0.02655	-0.00473	0.019684	-0.08728	-0.10147	0.017395	0.009308	0.28091	0.036011	0.005646	-0.015869	0.025787	-0.003967	-0.006866	-0.016632	0.011444	-0.19974	-0.090332	-0.055389	0.42343	-0.007172	-0.1033	0.033722	0.005035	0.023651	0.024414	-0.017395	0.23499	-0.1651	-0.005035	0.008087
8.349	0.027161	-0.00946	0.013123	0.015717	-0.02655	-0.078278	-0.02182	0.003357	0.19257	0.037689	0.007172	-0.001221	0.017395	0.066833	0.010071	-0.002899	0.014496	-0.1564	-0.12131	-0.042725	0.39185	-0.040588	-0.1091	0.00885	0.005493	0.054474	-0.033264	-0.013428	-0.31998	-0.24292	-0.002594	0.008545
8.35	0.016174	0.0177	-0.019989	0.010529	0.091858	-0.050201	0.051422	-0.003357	0.17838	0.027466	0.011292	-0.003204	0.015564	0.074768	0.003204	0.002289	0.000305	-0.18829	-0.18555	-0.025635	0.42038	-0.06897	-0.16632	0.052795	0.014648	0.054474	0.012054	0.005493	-1.0519	-0.27969	-0.009766	0.015106
8.351	-0.0177	0.009613	-0.027313	0.002899	0.07782	-0.019989	0.040741	-0.013885	0.10696	0.02243	0	-0.009308	0.000763	0.051575	0.007629	0.001373	-0.022583	-0.17777	-0.030975	-0.00885	0.27786	-0.10162	-0.16678	0.068512	0.011902	0.029144	0.057678	-0.019073	-1.2674	-0.45685	-0.001221	0.006714
8.352	0.070496	-0.029907	0.00412	0.004883	0.029755	0.09079	0.036774	0.002441	0.016479	0.020905	0.048065	-0.003662	0.003967	0.054169	0.00946	0.004272	0.00946	-0.14099	-0.014343	0.020599	0.16434	-0.050659	-0.15671	0.059967	0.019684	0.034637	-0.039368	-0.080109	-0.7515	-0.71228	-0.001221	0.00351
8.353	0.04715	-0.050354	0.078735	-0.009155	0.061493	0.022583	0.021515	0.016785	0.035706	0.026245	0.11749	-0.001831	0.005493	0.060425	0.005341	-0.009003	-0.001373	-0.16357	0.028992	-0.00061	0.0177	0.012512	-0.13001	-0.006714	0.026398	0.034485	0.026398	-0.24658	-0.48553	-0.65338	0.002289	-0.001678
8.354	-0.012512	-0.056	0.097504	0.011902	0.060883	-0.32105	-0.004425	0.023804	0.18494	0.024109	0.16373	-0.006256	0.000458	0.046539	0.005341	0.004578	-0.003815	-0.066223	0.17334	-0.006409	0.008087	-0.020142	-0.16556	0.021515	0.016479	0.027618	0.07782	-0.11932	-0.17136	-0.1091	-0.003967	-0.004272
8.355	-0.00473	-0.084534	0.08606	0.006104	0.057373	-0.63812	-0.009766	0.02594	0.21912	0.025787	0.10971	-0.014496	0.017242	0.045471	0.004578	-0.000305	0.014954	-0.17639	-0.082703	-0.042114	-0.00351	-0.029907	-0.15595	0.006104	0.024109	-0.020294	0.041809	0.19363	0.47058	0.20248	-0.002289	-0.00412
8.356	0.004578	-0.063477	0.062408	-0.000916	0.02594	-0.43991	-0.12878	0.02182	0.23163	0.020905	0.001373	0.00824	0.030823	0.047607	0.016785	-0.006104	0.009308	-0.15823	-0.12039	-0.041656	0.011444	-0.059509	-0.12726	-0.035553	0.012817	-0.069885	0.009613	0.059967	0.59738	-0.10315	-0.00412	-0.001526
8.357	0.014191	-0.069275	0.067749	-0.002594	0.025635	-0.16388	-0.22476	0.012665	0.12863	0.022278	-0.11704	-0.006561	0.077362	0.0354	0.020752	-0.005188	-0.006866	-0.18921	-0.13947	-0.030823	0.067596	-0.13031	-0.12558	-0.03891	0.006561	-0.060425	-0.034943	0.018768	0.58975	-0.16724	-0.003967	0.001984
8.358	0.006714	-0.036163	0.084076	0.005493	0.021362	-0.062866	-0.22385	0.007324	-0.1178	0.005798	-0.17029	-0.001678	0.14725	0.059967	-0.010376	0.003204	0.019531	-0.14358	-0.09491	-0.027313	0.1207	-0.12833	-0.10025	-0.15579	0.011292	-0.059052	-0.076904	0.067749	0.33585	0.22049	-0.003662	0.000305
8.359	0.02182	-0.026398	0.078888	0.013428	-0.007782	-0.071564	-0.16953	-0.021973	-0.1889	0.01236	-0.096893	-0.005341	0.10407	0.07782	0.005035	-0.000153	0.042572	-0.21027	-0.044861	0.10941	-0.16159	-0.10223	-0.12497	-0.16144	0.009613	-0.052795	-0.061493	0.09964	0.2211	0.84106	-0.003357	0.007782
8.36	-0.003204	-0.016632	0.058136	0.0177	-0.017395	-0.053101	-0.050507	-0.030975	-0.098877	0.003204	-0.055695	-0.009613	0.13367	0.062561	0.019684	0.001373	0.020905	-0.13641	-0.19165	0.1651	-0.17807	-0.14297	-0.19531	-0.077209	0.036926	-0.10346	-0.04425	-0.31097	0.15503	0.32166	-0.003815	0.004883
8.361	-0.008392	0	0.08255	-0.00351	0.001373	-0.055084	0.017395	-0.025635	0.11002	0.033569	-0.032959	-0.000305	-0.09491	0.076447	0.023651	-0.004272	-0.004425	-0.15015	-0.18188	0.097504	-0.052338	-0.046997	-0.23544	0.016785	0.019684	-0.10513	-0.080261	-0.19012	0.13977	0.095673	-0.003662	0.02121
8.362	-0.01236	0.002899	0.095062	0.005035	0.04715	-0.024109	-0.003815	-0.01709	0.20508	0.058594	0.00061	-0.008087	-0.15167	0.066833	0.004578	-0.005646	-0.004272	-0.22018	-0.24704	0.034027	0.12543	0.13596	-0.18021	-0.026398	0.03479	-0.055237	-0.080109	0.009613	0.23651	0.11414	-0.005646	0.010376
8.363	-0.034637	0.004425	0.054779	-0.021057	0.029602	0.060577	0.057373	-0.005188	0.14862	0.028992	-0.005341	-0.005341	0.42175	0.060272	0.008087	0.005188	-0.028839	-0.19882	-0.33279	-0.018158	-0.074158	0.21515	-0.19516	0.05127	0.017853	-0.042267	-0.08606	0.30868	0.21454	-0.21515	0	0.010986
8.364	-0.046997	-0.002594	0.017242	-0.006561	-0.04303	0.059662	0.14954	0.007019	0.13229	0.022583	-0.013275	-0.001221	0.50064	0.060883	0.003815	-0.001068	-0.010986	-0.11948	-0.16037	-0.03952	-0.20371	0.14053	-0.20096	0.049591	0.012512	0.026245	-0.021973	0.038605	-0.080719	-0.11276	-0.002899	0.003662
8.365	-0.039368	0.006104	-0.000153	0.000916	-0.056152	-0.006866	0.14847	-0.002899	0.13687	0.004425	-0.000916	0	0.59769	0.12863	0.012207	0.001373	0.012817	-0.12268	-0.10391	-0.13657	-0.11673	0.048065	-0.20615	0.03067	0.021362	0.094604	0.020447	0.035095	-0.38345	0.18433	-0.000305	-0.011902
8.366	-0.02182	-0.064545	0.029602	0.018005	-0.08316	-0.06897	0.088959	-0.029297	0.15762	0.009766	0.007477	0.013275	-0.085297	0.20218	0.029297	0.000458	0.039063	-0.18097	-0.28046	-0.1683	0.081635	0.030518	-0.18341	0.009003	0.003357	0.090027	-0.001984	0.078278	-0.33676	0.53726	0.001068	-0.011292
8.367	-0.006866	-0.093842	0.01236	0.006714	-0.005798	-0.002136	0.088654	-0.017548	0.11139	0.014954	0.006104	0.003815	-0.42221	0.1181	0.004425	0.005188	0.016937	-0.19302	-0.13397	-0.031586	0.23331	-0.002747	-0.23086	0.043945	0.009155	0.051117	0.023193	0.023956	-0.36636	0.41046	-0.00061	-0.007629
8.368	0.009613	-0.025482	0.00946	0.006256	0.08255	0.1387	0.13306	-0.006866	0.025177	0.020905	-0.001221	0.020447	-0.34286	0.01297	-0.067596	0.008087	0.006561	-0.15335	-0.082092	0.12833	0.25696	-0.017242	-0.20462	0.094757	0.023041	0.023499	0.038452	0.032806	-0.19409	0.271	-0.001678	-0.012512
8.369	0.003204	0.006866	-0.074158	0.003357	0.08728	0.2536	0.12192	-0.009155	-0.063629	0.005798	-0.019836	0.023499	-0.012512	0.087891	-0.019531	0.006409	0.049133	-0.13657	-0.10025	0.097961	-0.10117	0.055237	-0.16403	0.022125	0.011749	0.004883	0.034027	-0.029907	-0.058289	0.065002	-0.003204	-0.017395
8.37	-0.009918	0.008392	-0.083313	-0.004578	0.045776	0.31067	0.066681	-0.013275	0.0383	0.031281	-0.005341	0.034943	-0.027618	-0.00061	-0.072632	-0.003204	0.032196	-0.14511	-0.1442	0.066528	0.1918	0.04837	-0.1767	0.008392	-0.004425	-0.035706	0.047302	-0.2066	0.058746	-0.06485	-0.000458	-0.028076
8.371	-0.019989	0.025024	-0.065918	-0.00412	0.005951	0.31052	0.065613	-0.006714	0.077209	0.062408	0.007477	0.04715	-0.26688	-0.11887	-0.11765	-0.010681	0.020447	-0.16586	0.043793	-0.009308	0.29663	0.005188	-0.17273	0.018616	0.003967	-0.027008	0.066223	-0.021362	0.13718	-0.14008	-0.004272	-0.034485
8.372	-0.029297	0.059662	-0.016785	0.009613	-0.033417	0.22553	0.14862	-0.015717	0.02655	0.041656	0.007629	0.058289	-0.31632	-0.22079	-0.066528	-0.011749	0.003815	-0.16861	-0.16037	-0.039215	0.11337	0.21072	-0.21072	-0.012054	0.00061	0.002747	0.050964	0.25681	0.093536	0.047455	0.001068	-0.033875
8.373	-0.023041	0.14572	0.045319	0.007782	-0.039673	0.14908	0.10483	-0.002594	0.010681	0.038147	-0.008698	0.081329	0.015106	-0.38025	-0.058594	-0.018311	-0.00824	-0.18753	-0.22186	-0.039978	-0.033722	0.28305	-0.19913	0.014343	0.000458	0.011444	0.024872	0.066223	0.11475	0.55939	-0.003357	-0.023651
8.374	-0.016632	0.14404	0.088806	0.011597	-0.055084	0.10666	0.074005	0.016174	-0.039215	0.027313	-0.006714	0.10819	0.072784	-0.50995	-0.063934	-0.02655	-0.007019	-0.20706	-0.15259	-0.016785	-0.029907	0.18997	-0.25635	0.017242	0.003204	0.021057	-0.011292	-0.009613	0.04776	0.4776	-0.001831	-0.025024
